<mxfile host="65bd71144e">
    <diagram id="BNq_GD3II2_HoFgmNa8N" name="Page-1">
        <mxGraphModel dx="1805" dy="776" grid="1" gridSize="10" guides="1" tooltips="1" connect="1" arrows="1" fold="1" page="1" pageScale="1" pageWidth="827" pageHeight="1169" math="0" shadow="0">
            <root>
                <mxCell id="0"/>
                <mxCell id="1" parent="0"/>
                <mxCell id="2" value="srvOne" style="rounded=0;whiteSpace=wrap;html=1;" vertex="1" parent="1">
                    <mxGeometry x="310" y="260" width="120" height="60" as="geometry"/>
                </mxCell>
                <mxCell id="4" value="srv clone" style="rounded=0;whiteSpace=wrap;html=1;" vertex="1" parent="1">
                    <mxGeometry x="170" y="670" width="120" height="60" as="geometry"/>
                </mxCell>
                <mxCell id="5" value="input" style="text;html=1;strokeColor=none;fillColor=none;align=center;verticalAlign=middle;whiteSpace=wrap;rounded=0;" vertex="1" parent="1">
                    <mxGeometry x="150" y="170" width="60" height="30" as="geometry"/>
                </mxCell>
                <mxCell id="6" value="HTTP" style="rounded=0;whiteSpace=wrap;html=1;" vertex="1" parent="1">
                    <mxGeometry x="150" y="240" width="70" height="30" as="geometry"/>
                </mxCell>
                <mxCell id="7" value="gRPC" style="rounded=0;whiteSpace=wrap;html=1;" vertex="1" parent="1">
                    <mxGeometry x="150" y="310" width="70" height="30" as="geometry"/>
                </mxCell>
                <mxCell id="8" value="HTTP" style="rounded=0;whiteSpace=wrap;html=1;" vertex="1" parent="1">
                    <mxGeometry x="520" y="240" width="70" height="30" as="geometry"/>
                </mxCell>
                <mxCell id="9" value="gRPC" style="rounded=0;whiteSpace=wrap;html=1;" vertex="1" parent="1">
                    <mxGeometry x="520" y="310" width="70" height="30" as="geometry"/>
                </mxCell>
                <mxCell id="10" value="output" style="text;html=1;strokeColor=none;fillColor=none;align=center;verticalAlign=middle;whiteSpace=wrap;rounded=0;" vertex="1" parent="1">
                    <mxGeometry x="525" y="170" width="60" height="30" as="geometry"/>
                </mxCell>
                <mxCell id="11" value="msg" style="rounded=0;whiteSpace=wrap;html=1;" vertex="1" parent="1">
                    <mxGeometry x="145" y="380" width="70" height="30" as="geometry"/>
                </mxCell>
                <mxCell id="12" value="msg" style="rounded=0;whiteSpace=wrap;html=1;" vertex="1" parent="1">
                    <mxGeometry x="520" y="380" width="70" height="30" as="geometry"/>
                </mxCell>
                <mxCell id="13" value="functions" style="text;html=1;strokeColor=none;fillColor=none;align=center;verticalAlign=middle;whiteSpace=wrap;rounded=0;" vertex="1" parent="1">
                    <mxGeometry x="340" y="430" width="60" height="30" as="geometry"/>
                </mxCell>
                <mxCell id="14" value="task-1" style="rounded=0;whiteSpace=wrap;html=1;" vertex="1" parent="1">
                    <mxGeometry x="260" y="470" width="70" height="30" as="geometry"/>
                </mxCell>
                <mxCell id="15" value="task-2" style="rounded=0;whiteSpace=wrap;html=1;" vertex="1" parent="1">
                    <mxGeometry x="360" y="470" width="70" height="30" as="geometry"/>
                </mxCell>
                <mxCell id="16" value="task-3" style="rounded=0;whiteSpace=wrap;html=1;" vertex="1" parent="1">
                    <mxGeometry x="455" y="470" width="70" height="30" as="geometry"/>
                </mxCell>
            </root>
        </mxGraphModel>
    </diagram>
</mxfile>